<svg width="33" height="33" viewBox="0 0 33 33" fill="none" xmlns="http://www.w3.org/2000/svg">
<g id="vuesax/bold/24-support">
<g id="24-support">
<path id="Vector" d="M24.8688 3.10693H8.7974C6.57418 3.10693 4.77954 4.88818 4.77954 7.08461V21.6962C4.77954 23.8926 6.57418 25.6739 8.7974 25.6739H9.81526C10.8867 25.6739 11.9045 26.0891 12.6545 26.8391L14.9447 29.1025C15.9894 30.1337 17.6903 30.1337 18.7349 29.1025L21.0251 26.8391C21.7751 26.0891 22.8063 25.6739 23.8644 25.6739H24.8688C27.092 25.6739 28.8867 23.8926 28.8867 21.6962V7.08461C28.8867 4.88818 27.092 3.10693 24.8688 3.10693ZM14.6635 17.8525C15.2126 17.8525 15.6679 18.3078 15.6679 18.8569C15.6679 19.406 15.2126 19.8614 14.6635 19.8614H11.0742C10.4849 19.8614 9.93579 19.5801 9.58758 19.098C9.25276 18.6426 9.1724 18.0801 9.33311 17.5444C9.80186 16.1114 10.9536 15.3346 11.9715 14.6382C13.0429 13.915 13.6456 13.4596 13.6456 12.6828C13.6456 11.9864 13.0831 11.4239 12.3867 11.4239C11.6903 11.4239 11.1411 11.9998 11.1411 12.6962C11.1411 13.2453 10.6858 13.7007 10.1367 13.7007C9.58758 13.7007 9.13222 13.2453 9.13222 12.6962C9.13222 10.9016 10.592 9.42836 12.4001 9.42836C14.2081 9.42836 15.6679 10.8882 15.6679 12.6962C15.6679 14.5846 14.2483 15.5489 13.1099 16.3257C12.4001 16.8078 11.7304 17.2632 11.3956 17.8659H14.6635V17.8525ZM23.5295 17.9462H23.2483V18.8703C23.2483 19.4194 22.7929 19.8748 22.2438 19.8748C21.6947 19.8748 21.2394 19.4194 21.2394 18.8703V17.9462H18.6144C18.6144 17.9462 18.6144 17.9462 18.601 17.9462C17.9447 17.9462 17.342 17.598 17.0072 17.0355C16.6724 16.4596 16.6724 15.7498 17.0072 15.1873C17.9179 13.6203 18.976 11.8391 19.9403 10.2855C20.3688 9.60247 21.1858 9.29443 21.9492 9.50872C22.7126 9.7364 23.2483 10.4328 23.2349 11.2364V15.9507H23.5295C24.0786 15.9507 24.534 16.406 24.534 16.9551C24.534 17.5043 24.0786 17.9462 23.5295 17.9462Z" fill="white"/>
<path id="Vector_2" d="M21.2395 15.9373V11.9998C20.4493 13.2855 19.6324 14.6649 18.8958 15.9239H21.2395V15.9373Z" fill="white"/>
</g>
</g>
</svg>
