<svg width="33" height="33" viewBox="0 0 33 33" fill="none" xmlns="http://www.w3.org/2000/svg">
<g id="vuesax/bold/calendar">
<g id="calendar">
<path id="Vector" d="M22.8615 5.19629V3.107C22.8615 2.5579 22.4061 2.10254 21.857 2.10254C21.3079 2.10254 20.8525 2.5579 20.8525 3.107V5.11593H12.1472V3.107C12.1472 2.5579 11.6918 2.10254 11.1427 2.10254C10.5936 2.10254 10.1382 2.5579 10.1382 3.107V5.19629C6.52218 5.53111 4.76771 7.68736 4.49985 10.8883C4.47307 11.2766 4.7945 11.5981 5.1695 11.5981H27.8302C28.2186 11.5981 28.54 11.2633 28.4999 10.8883C28.232 7.68736 26.4775 5.53111 22.8615 5.19629Z" fill="white"/>
<path id="Vector_2" d="M27.2141 13.6072H5.78557C5.04897 13.6072 4.44629 14.2099 4.44629 14.9465V23.1965C4.44629 27.2143 6.45522 29.8929 11.1427 29.8929H21.857C26.5445 29.8929 28.5534 27.2143 28.5534 23.1965V14.9465C28.5534 14.2099 27.9508 13.6072 27.2141 13.6072ZM12.7633 24.817C12.6963 24.8706 12.6293 24.9375 12.5624 24.9777C12.482 25.0313 12.4016 25.0715 12.3213 25.0983C12.2409 25.1384 12.1606 25.1652 12.0802 25.1786C11.9865 25.192 11.9061 25.2054 11.8124 25.2054C11.6383 25.2054 11.4641 25.1652 11.3034 25.0983C11.1293 25.0313 10.9954 24.9375 10.8615 24.817C10.6204 24.5625 10.4731 24.2143 10.4731 23.8661C10.4731 23.5179 10.6204 23.1697 10.8615 22.9152C10.9954 22.7947 11.1293 22.7009 11.3034 22.634C11.5445 22.5268 11.8124 22.5 12.0802 22.5536C12.1606 22.567 12.2409 22.5938 12.3213 22.634C12.4016 22.6607 12.482 22.7009 12.5624 22.7545C12.6293 22.8081 12.6963 22.8616 12.7633 22.9152C13.0043 23.1697 13.1516 23.5179 13.1516 23.8661C13.1516 24.2143 13.0043 24.5625 12.7633 24.817ZM12.7633 20.1295C12.5088 20.3706 12.1606 20.5179 11.8124 20.5179C11.4641 20.5179 11.1159 20.3706 10.8615 20.1295C10.6204 19.875 10.4731 19.5268 10.4731 19.1786C10.4731 18.8304 10.6204 18.4822 10.8615 18.2277C11.2365 17.8527 11.8258 17.7322 12.3213 17.9465C12.4954 18.0134 12.6427 18.1072 12.7633 18.2277C13.0043 18.4822 13.1516 18.8304 13.1516 19.1786C13.1516 19.5268 13.0043 19.875 12.7633 20.1295ZM17.4508 24.817C17.1963 25.0581 16.8481 25.2054 16.4999 25.2054C16.1516 25.2054 15.8034 25.0581 15.549 24.817C15.3079 24.5625 15.1606 24.2143 15.1606 23.8661C15.1606 23.5179 15.3079 23.1697 15.549 22.9152C16.0445 22.4197 16.9552 22.4197 17.4508 22.9152C17.6918 23.1697 17.8391 23.5179 17.8391 23.8661C17.8391 24.2143 17.6918 24.5625 17.4508 24.817ZM17.4508 20.1295C17.3838 20.1831 17.3168 20.2366 17.2499 20.2902C17.1695 20.3438 17.0891 20.384 17.0088 20.4107C16.9284 20.4509 16.8481 20.4777 16.7677 20.4911C16.674 20.5045 16.5936 20.5179 16.4999 20.5179C16.1516 20.5179 15.8034 20.3706 15.549 20.1295C15.3079 19.875 15.1606 19.5268 15.1606 19.1786C15.1606 18.8304 15.3079 18.4822 15.549 18.2277C15.6695 18.1072 15.8168 18.0134 15.9909 17.9465C16.4865 17.7322 17.0758 17.8527 17.4508 18.2277C17.6918 18.4822 17.8391 18.8304 17.8391 19.1786C17.8391 19.5268 17.6918 19.875 17.4508 20.1295ZM22.1383 24.817C21.8838 25.0581 21.5356 25.2054 21.1874 25.2054C20.8391 25.2054 20.4909 25.0581 20.2365 24.817C19.9954 24.5625 19.8481 24.2143 19.8481 23.8661C19.8481 23.5179 19.9954 23.1697 20.2365 22.9152C20.732 22.4197 21.6427 22.4197 22.1383 22.9152C22.3793 23.1697 22.5266 23.5179 22.5266 23.8661C22.5266 24.2143 22.3793 24.5625 22.1383 24.817ZM22.1383 20.1295C22.0713 20.1831 22.0043 20.2366 21.9374 20.2902C21.857 20.3438 21.7766 20.384 21.6963 20.4107C21.6159 20.4509 21.5356 20.4777 21.4552 20.4911C21.3615 20.5045 21.2677 20.5179 21.1874 20.5179C20.8391 20.5179 20.4909 20.3706 20.2365 20.1295C19.9954 19.875 19.8481 19.5268 19.8481 19.1786C19.8481 18.8304 19.9954 18.4822 20.2365 18.2277C20.3704 18.1072 20.5043 18.0134 20.6784 17.9465C20.9195 17.8393 21.1874 17.8125 21.4552 17.8661C21.5356 17.8795 21.6159 17.9063 21.6963 17.9465C21.7766 17.9732 21.857 18.0134 21.9374 18.067C22.0043 18.1206 22.0713 18.1741 22.1383 18.2277C22.3793 18.4822 22.5266 18.8304 22.5266 19.1786C22.5266 19.5268 22.3793 19.875 22.1383 20.1295Z" fill="white"/>
</g>
</g>
</svg>
