<svg width="33" height="33" viewBox="0 0 33 33" fill="none" xmlns="http://www.w3.org/2000/svg">
<g id="vuesax/bold/code">
<g id="code">
<path id="Vector" d="M21.7784 3.10693H10.5552C5.68018 3.10693 2.77393 6.01318 2.77393 10.8882V22.098C2.77393 26.9864 5.68018 29.8926 10.5552 29.8926H21.765C26.64 29.8926 29.5462 26.9864 29.5462 22.1114V10.8882C29.5596 6.01318 26.6534 3.10693 21.7784 3.10693ZM13.4079 18.2007C12.4971 19.5668 11.2382 20.6784 9.765 21.415C9.63107 21.4819 9.47035 21.5221 9.32303 21.5221C8.94803 21.5221 8.59982 21.3212 8.42571 20.973C8.17125 20.4775 8.37214 19.8748 8.88107 19.6203C10.0462 19.0444 11.0373 18.1605 11.7471 17.0891C11.9882 16.7275 11.9882 16.2721 11.7471 15.9105C11.0239 14.8391 10.0329 13.9551 8.88107 13.3793C8.37214 13.1382 8.17125 12.5355 8.42571 12.0266C8.66678 11.531 9.26946 11.3301 9.765 11.5846C11.2382 12.3212 12.4971 13.4328 13.4079 14.7989C14.1043 15.8301 14.1043 17.1694 13.4079 18.2007ZM22.8632 21.5221H17.5061C16.957 21.5221 16.5016 21.0668 16.5016 20.5176C16.5016 19.9685 16.957 19.5132 17.5061 19.5132H22.8632C23.4123 19.5132 23.8677 19.9685 23.8677 20.5176C23.8677 21.0668 23.4123 21.5221 22.8632 21.5221Z" fill="white"/>
</g>
</g>
</svg>
