<svg width="149" height="13" viewBox="0 0 149 13" fill="none" xmlns="http://www.w3.org/2000/svg">
<path d="M8.22727 4.125C8.14773 3.84848 8.03599 3.60417 7.89205 3.39205C7.74811 3.17614 7.57197 2.99432 7.36364 2.84659C7.15909 2.69508 6.92424 2.57955 6.65909 2.5C6.39773 2.42045 6.10795 2.38068 5.78977 2.38068C5.19508 2.38068 4.67235 2.52841 4.22159 2.82386C3.77462 3.11932 3.42614 3.54924 3.17614 4.11364C2.92614 4.67424 2.80114 5.35985 2.80114 6.17045C2.80114 6.98106 2.92424 7.67045 3.17045 8.23864C3.41667 8.80682 3.76515 9.24053 4.21591 9.53977C4.66667 9.83523 5.19886 9.98295 5.8125 9.98295C6.36932 9.98295 6.8447 9.88447 7.23864 9.6875C7.63636 9.48674 7.93939 9.20455 8.14773 8.84091C8.35985 8.47727 8.46591 8.04735 8.46591 7.55114L8.96591 7.625H5.96591V5.77273H10.8352V7.23864C10.8352 8.26136 10.6193 9.14015 10.1875 9.875C9.75568 10.6061 9.16098 11.1705 8.40341 11.5682C7.64583 11.9621 6.77841 12.1591 5.80114 12.1591C4.71023 12.1591 3.75189 11.9186 2.92614 11.4375C2.10038 10.9527 1.45644 10.2652 0.994318 9.375C0.535985 8.48106 0.306818 7.42045 0.306818 6.19318C0.306818 5.25 0.443182 4.40909 0.715909 3.67045C0.992424 2.92803 1.37879 2.29924 1.875 1.78409C2.37121 1.26894 2.94886 0.876893 3.60795 0.607954C4.26705 0.339015 4.98106 0.204545 5.75 0.204545C6.40909 0.204545 7.02273 0.301136 7.59091 0.494318C8.15909 0.683712 8.66288 0.952651 9.10227 1.30114C9.54545 1.64962 9.9072 2.06439 10.1875 2.54545C10.4678 3.02273 10.6477 3.54924 10.7273 4.125H8.22727ZM12.6832 12V0.363636H20.5241V2.39205H15.1435V5.16477H20.1207V7.19318H15.1435V9.97159H20.5469V12H12.6832ZM22.0369 2.39205V0.363636H31.5938V2.39205H28.0312V12H25.5994V2.39205H22.0369ZM43.1832 3.71023C43.1378 3.25189 42.9427 2.89583 42.598 2.64205C42.2533 2.38826 41.7855 2.26136 41.1946 2.26136C40.7931 2.26136 40.4541 2.31818 40.1776 2.43182C39.901 2.54167 39.6889 2.69508 39.5412 2.89205C39.3973 3.08902 39.3253 3.3125 39.3253 3.5625C39.3177 3.77083 39.3613 3.95265 39.456 4.10795C39.5545 4.26326 39.6889 4.39773 39.8594 4.51136C40.0298 4.62121 40.2268 4.7178 40.4503 4.80114C40.6738 4.88068 40.9124 4.94886 41.1662 5.00568L42.2116 5.25568C42.7192 5.36932 43.1851 5.52083 43.6094 5.71023C44.0336 5.89962 44.401 6.13258 44.7116 6.40909C45.0223 6.68561 45.2628 7.01136 45.4332 7.38636C45.6075 7.76136 45.6965 8.19129 45.7003 8.67614C45.6965 9.38826 45.5147 10.0057 45.1548 10.5284C44.7988 11.0473 44.2836 11.4508 43.6094 11.7386C42.9389 12.0227 42.1302 12.1648 41.1832 12.1648C40.2438 12.1648 39.4257 12.0208 38.7287 11.733C38.0355 11.4451 37.4938 11.0189 37.1037 10.4545C36.7173 9.88636 36.5147 9.18371 36.4957 8.34659H38.8764C38.9029 8.73674 39.0147 9.0625 39.2116 9.32386C39.4124 9.58144 39.6795 9.77652 40.0128 9.90909C40.3499 10.0379 40.7306 10.1023 41.1548 10.1023C41.5715 10.1023 41.9332 10.0417 42.2401 9.92045C42.5507 9.79924 42.7912 9.63068 42.9616 9.41477C43.1321 9.19886 43.2173 8.95076 43.2173 8.67045C43.2173 8.40909 43.1397 8.18939 42.9844 8.01136C42.8329 7.83333 42.6094 7.68182 42.3139 7.55682C42.0223 7.43182 41.6643 7.31818 41.2401 7.21591L39.973 6.89773C38.992 6.65909 38.2173 6.28598 37.6491 5.77841C37.081 5.27083 36.7988 4.58712 36.8026 3.72727C36.7988 3.02273 36.9863 2.4072 37.3651 1.88068C37.7476 1.35417 38.2723 0.943182 38.9389 0.647727C39.6056 0.352272 40.3632 0.204545 41.2116 0.204545C42.0753 0.204545 42.8291 0.352272 43.473 0.647727C44.1207 0.943182 44.6245 1.35417 44.9844 1.88068C45.3442 2.4072 45.5298 3.01705 45.5412 3.71023H43.1832ZM46.9119 2.39205V0.363636H56.4688V2.39205H52.9062V12H50.4744V2.39205H46.9119ZM58.6264 12H55.9901L60.0071 0.363636H63.1776L67.1889 12H64.5526L61.6378 3.02273H61.5469L58.6264 12ZM58.4616 7.42614H64.6889V9.34659H58.4616V7.42614ZM68.5895 12V0.363636H73.1804C74.0592 0.363636 74.8092 0.520833 75.4304 0.835227C76.0554 1.14583 76.5308 1.58712 76.8565 2.15909C77.1861 2.72727 77.3509 3.39583 77.3509 4.16477C77.3509 4.9375 77.1842 5.60227 76.8509 6.15909C76.5175 6.71212 76.0346 7.13636 75.402 7.43182C74.7732 7.72727 74.0118 7.875 73.1179 7.875H70.044V5.89773H72.7202C73.1899 5.89773 73.58 5.83333 73.8906 5.70455C74.2012 5.57576 74.4323 5.38258 74.5838 5.125C74.7391 4.86742 74.8168 4.54735 74.8168 4.16477C74.8168 3.77841 74.7391 3.45265 74.5838 3.1875C74.4323 2.92235 74.1993 2.72159 73.8849 2.58523C73.5743 2.44508 73.1823 2.375 72.7088 2.375H71.0497V12H68.5895ZM74.8736 6.70455L77.7656 12H75.0497L72.2202 6.70455H74.8736ZM78.6463 2.39205V0.363636H88.2031V2.39205H84.6406V12H82.2088V2.39205H78.6463ZM93.0369 2.39205V0.363636H102.594V2.39205H99.0312V12H96.5994V2.39205H93.0369ZM114.33 6.18182C114.33 7.45076 114.089 8.5303 113.608 9.42045C113.131 10.3106 112.479 10.9905 111.653 11.4602C110.831 11.9261 109.907 12.1591 108.881 12.1591C107.847 12.1591 106.919 11.9242 106.097 11.4545C105.275 10.9848 104.625 10.3049 104.148 9.41477C103.67 8.52462 103.432 7.44697 103.432 6.18182C103.432 4.91288 103.67 3.83333 104.148 2.94318C104.625 2.05303 105.275 1.375 106.097 0.909091C106.919 0.439394 107.847 0.204545 108.881 0.204545C109.907 0.204545 110.831 0.439394 111.653 0.909091C112.479 1.375 113.131 2.05303 113.608 2.94318C114.089 3.83333 114.33 4.91288 114.33 6.18182ZM111.835 6.18182C111.835 5.35985 111.712 4.66667 111.466 4.10227C111.223 3.53788 110.881 3.10985 110.438 2.81818C109.994 2.52652 109.475 2.38068 108.881 2.38068C108.286 2.38068 107.767 2.52652 107.324 2.81818C106.881 3.10985 106.536 3.53788 106.29 4.10227C106.047 4.66667 105.926 5.35985 105.926 6.18182C105.926 7.00379 106.047 7.69697 106.29 8.26136C106.536 8.82576 106.881 9.25379 107.324 9.54545C107.767 9.83712 108.286 9.98295 108.881 9.98295C109.475 9.98295 109.994 9.83712 110.438 9.54545C110.881 9.25379 111.223 8.82576 111.466 8.26136C111.712 7.69697 111.835 7.00379 111.835 6.18182ZM120.277 12H116.152V0.363636H120.311C121.482 0.363636 122.489 0.596591 123.334 1.0625C124.179 1.52462 124.828 2.18939 125.283 3.05682C125.741 3.92424 125.97 4.96212 125.97 6.17045C125.97 7.38258 125.741 8.42424 125.283 9.29545C124.828 10.1667 124.175 10.8352 123.322 11.3011C122.474 11.767 121.459 12 120.277 12ZM118.612 9.89205H120.175C120.902 9.89205 121.514 9.76326 122.01 9.50568C122.51 9.24432 122.885 8.84091 123.135 8.29545C123.389 7.74621 123.516 7.03788 123.516 6.17045C123.516 5.31061 123.389 4.60795 123.135 4.0625C122.885 3.51705 122.512 3.11553 122.016 2.85795C121.519 2.60038 120.908 2.47159 120.18 2.47159H118.612V9.89205ZM129.142 12H126.506L130.523 0.363636H133.693L137.705 12H135.068L132.153 3.02273H132.062L129.142 12ZM128.977 7.42614H135.205V9.34659H128.977V7.42614ZM137.236 0.363636H139.991L142.645 5.375H142.759L145.412 0.363636H148.168L143.923 7.88636V12H141.48V7.88636L137.236 0.363636Z" fill="url(#paint0_linear_325_5585)"/>
<defs>
<linearGradient id="paint0_linear_325_5585" x1="74" y1="-3" x2="74" y2="16" gradientUnits="userSpaceOnUse">
<stop stop-color="#517DFC"/>
<stop offset="1" stop-color="#0A42C6"/>
</linearGradient>
</defs>
</svg>
