<svg width="25" height="24" viewBox="0 0 25 24" fill="none" xmlns="http://www.w3.org/2000/svg">
<path d="M21.7502 18.47L20.1002 18.86C19.7302 18.95 19.4402 19.23 19.3602 19.6L19.0102 21.07C18.8202 21.87 17.8002 22.12 17.2702 21.49L14.2802 18.05C14.0402 17.77 14.1702 17.33 14.5302 17.24C16.3002 16.81 17.8902 15.82 19.0602 14.41C19.2502 14.18 19.5902 14.15 19.8002 14.36L22.0202 16.58C22.7802 17.34 22.5102 18.29 21.7502 18.47Z" fill="white"/>
<path d="M3.20016 18.47L4.85016 18.86C5.22016 18.95 5.51016 19.23 5.59016 19.6L5.94016 21.07C6.13016 21.87 7.15016 22.12 7.68016 21.49L10.6702 18.05C10.9102 17.77 10.7802 17.33 10.4202 17.24C8.65016 16.81 7.06016 15.82 5.89016 14.41C5.70016 14.18 5.36016 14.15 5.15016 14.36L2.93016 16.58C2.17016 17.34 2.44016 18.29 3.20016 18.47Z" fill="white"/>
<path d="M12.5 2C8.63 2 5.5 5.13 5.5 9C5.5 10.45 5.93 11.78 6.67 12.89C7.75 14.49 9.46 15.62 11.45 15.91C11.79 15.97 12.14 16 12.5 16C12.86 16 13.21 15.97 13.55 15.91C15.54 15.62 17.25 14.49 18.33 12.89C19.07 11.78 19.5 10.45 19.5 9C19.5 5.13 16.37 2 12.5 2ZM15.56 8.78L14.73 9.61C14.59 9.75 14.51 10.02 14.56 10.22L14.8 11.25C14.99 12.06 14.56 12.38 13.84 11.95L12.84 11.36C12.66 11.25 12.36 11.25 12.18 11.36L11.18 11.95C10.46 12.37 10.03 12.06 10.22 11.25L10.46 10.22C10.5 10.03 10.43 9.75 10.29 9.61L9.44 8.78C8.95 8.29 9.11 7.8 9.79 7.69L10.86 7.51C11.04 7.48 11.25 7.32 11.33 7.16L11.92 5.98C12.24 5.34 12.76 5.34 13.08 5.98L13.67 7.16C13.75 7.32 13.96 7.48 14.15 7.51L15.22 7.69C15.89 7.8 16.05 8.29 15.56 8.78Z" fill="white"/>
</svg>
